<svg class="diagram-root" style="background: #f5f6f6" xmlns="http://www.w3.org/2000/svg" xmlns:xlink="http://www.w3.org/1999/xlink"><style>.diagram-root { font-family: "Helvetica Neue", sans-serif; font-size: 12px; } .t { overflow: visible; } .t-bg { y: 40; fill: #fff;   } .th { fill: #005aa0;   } .tht { fill: #fff; font-size: 14px;  } .tf { fill: #323c46; overflow: visible; } .tf.pk { fill: #005aa0; font-weight: bold; } .tf.fk { font-weight: bold; } .ty { fill: #adb1b5; font-weight: normal; text-anchor: end; } .r { fill: transparent; stroke: #c3c3c3; stroke-width: 1; } .l { stroke: 1; } .i { fill: #c2c7ce; stroke: #c2c7ce; } .i.ix { fill: #afb3b6; stroke: #000; } .fa { fill: transparent; overflow: visible; } .fa .bg.hover { fill: #f7f7f7; } .c { cy: 12; r: 4; stroke: #d2d2dc; fill: #d2d2dc; } .hr { fill: transparent; stroke: #323c46; stroke-opacity: 0.035; stroke-width: 13; } .dc { stroke: #fa5a3c; fill: #fa5a3c; } .x { stroke: white; stroke-width: 1; } .hl .th { fill: #1b9bff; } .hl .tht {  } .fhl .bg { fill: #e7f4ff; } .fhls .bg {  } .r.hl { stroke: #1b9bff; } .dim { opacity: 0.25; }</style><g class="drawing-wrapper" transform="translate(2, 18) scale(1,1)"><g class="rs"><path d="M 205 112 m -1, 0 a 1,1 0 1,0 2,0 a 1,1 0 1,0 -2,0 M 205 112 m -0.5, 0 a 0.5,0.5 0 1,0 1,0 a 0.5,0.5 0 1,0 -1,0  M205 112 L205 112 193 112 M 205 118 m -1, 0 a 1,1 0 1,0 2,0 a 1,1 0 1,0 -2,0 M 205 118 m -0.5, 0 a 0.5,0.5 0 1,0 1,0 a 0.5,0.5 0 1,0 -1,0  M205 118 L205 118 198 112 205 106 M 205 106 m -1, 0 a 1,1 0 1,0 2,0 a 1,1 0 1,0 -2,0 M 205 106 m -0.5, 0 a 0.5,0.5 0 1,0 1,0 a 0.5,0.5 0 1,0 -1,0  M193 112 C 143 112, 38 87, 368 87 M 380 87 m -1, 0 a 1,1 0 1,0 2,0 a 1,1 0 1,0 -2,0 M 380 87 m -0.5, 0 a 0.5,0.5 0 1,0 1,0 a 0.5,0.5 0 1,0 -1,0  M380 87 L380 87 368 87 M374 93 L374 93 374 81" id="h2479265659" class="r"></path><path d="M 357.08 137 m -1, 0 a 1,1 0 1,0 2,0 a 1,1 0 1,0 -2,0 M 357.08 137 m -0.5, 0 a 0.5,0.5 0 1,0 1,0 a 0.5,0.5 0 1,0 -1,0  M357.08 137 L357.08 137 369.08 137 M 357.08 143 m -1, 0 a 1,1 0 1,0 2,0 a 1,1 0 1,0 -2,0 M 357.08 143 m -0.5, 0 a 0.5,0.5 0 1,0 1,0 a 0.5,0.5 0 1,0 -1,0  M357.08 143 L357.08 143 364.08 137 357.08 131 M 357.08 131 m -1, 0 a 1,1 0 1,0 2,0 a 1,1 0 1,0 -2,0 M 357.08 131 m -0.5, 0 a 0.5,0.5 0 1,0 1,0 a 0.5,0.5 0 1,0 -1,0  M369.08 137 C 419.08 137, 524.0799999999999 87, 194.08 87 M 182.08 87 m -1, 0 a 1,1 0 1,0 2,0 a 1,1 0 1,0 -2,0 M 182.08 87 m -0.5, 0 a 0.5,0.5 0 1,0 1,0 a 0.5,0.5 0 1,0 -1,0  M182.08 87 L182.08 87 194.08 87 M188.08 93 L188.08 93 188.08 81" id="h2121462320" class="r"></path></g><g class="hrs"></g><g class="ts"><svg width="152.08" height="175" x="30" y="30" id="h1193291789" class="t"><rect height="40" width="152.08" class="th"></rect><text x="13" y="25" class="tht">courses</text><rect height="135" width="152.08" class="t-bg" y="40"></rect><text x="13" y="61" class="tf pk">id<tspan x="139.08" class="ty">int</tspan></text><path d="M7,14A2,2 0 0,1 5,12A2,2 0 0,1 7,10A2,2 0 0,1 9,12A2,2 0 0,1 7,14M12.65,10C11.83,7.67 9.61,6 7, 6A6, 6 0 0, 0 1, 12A6, 6 0 0, 0 7, 18C9.61, 18 11.83, 16.33 12.65, 14H17V18H21V14H23V10H12.65Z" class="i pk" transform="translate(106.40617187500001, 48) scale(0.65)"></path><text x="13" y="86" class="tf">name<tspan x="139.08" class="ty">string</tspan></text><text x="13" y="111" class="tf">duration<tspan x="139.08" class="ty">string</tspan></text><text x="13" y="136" class="tf">created_at<tspan x="139.08" class="ty">datetime</tspan></text><text x="13" y="161" class="tf">updated_at<tspan x="139.08" class="ty">datetime</tspan></text></svg><svg width="152.08" height="200" x="205" y="30" id="h256252015" class="t"><rect height="40" width="152.08" class="th"></rect><text x="13" y="25" class="tht">enrollments</text><rect height="160" width="152.08" class="t-bg" y="40"></rect><text x="13" y="61" class="tf pk">id<tspan x="139.08" class="ty">int</tspan></text><path d="M7,14A2,2 0 0,1 5,12A2,2 0 0,1 7,10A2,2 0 0,1 9,12A2,2 0 0,1 7,14M12.65,10C11.83,7.67 9.61,6 7, 6A6, 6 0 0, 0 1, 12A6, 6 0 0, 0 7, 18C9.61, 18 11.83, 16.33 12.65, 14H17V18H21V14H23V10H12.65Z" class="i pk" transform="translate(106.40617187500001, 48) scale(0.65)"></path><text x="13" y="86" class="tf fk">user_id<tspan x="139.08" class="ty">int</tspan></text><text x="13" y="111" class="tf fk">course_id<tspan x="139.08" class="ty">int</tspan></text><text x="13" y="136" class="tf">status<tspan x="139.08" class="ty">string</tspan></text><text x="13" y="161" class="tf">created_at<tspan x="139.08" class="ty">datetime</tspan></text><text x="13" y="186" class="tf">updated_at<tspan x="139.08" class="ty">datetime</tspan></text></svg><svg width="152.08" height="175" x="380" y="30" id="h2948373614" class="t"><rect height="40" width="152.08" class="th"></rect><text x="13" y="25" class="tht">users</text><rect height="135" width="152.08" class="t-bg" y="40"></rect><text x="13" y="61" class="tf pk">id<tspan x="139.08" class="ty">int</tspan></text><path d="M7,14A2,2 0 0,1 5,12A2,2 0 0,1 7,10A2,2 0 0,1 9,12A2,2 0 0,1 7,14M12.65,10C11.83,7.67 9.61,6 7, 6A6, 6 0 0, 0 1, 12A6, 6 0 0, 0 7, 18C9.61, 18 11.83, 16.33 12.65, 14H17V18H21V14H23V10H12.65Z" class="i pk" transform="translate(106.40617187500001, 48) scale(0.65)"></path><text x="13" y="86" class="tf">name<tspan x="139.08" class="ty">string</tspan></text><text x="13" y="111" class="tf">email<tspan x="139.08" class="ty">string</tspan></text><text x="13" y="136" class="tf">created_at<tspan x="139.08" class="ty">datetime</tspan></text><text x="13" y="161" class="tf">updated_at<tspan x="139.08" class="ty">datetime</tspan></text></svg></g></g><text class="qdbd-link" x="10" y="20">www.quickdatabasediagrams.com</text></svg>